<svg width="38" height="40" viewBox="0 0 38 40" fill="none" xmlns="http://www.w3.org/2000/svg">
<path d="M24.6301 24.8464L21.8735 22.0899C22.5372 21.2064 22.8954 20.131 22.8942 19.026C22.8942 16.2036 20.5979 13.9073 17.7755 13.9073C14.953 13.9073 12.6567 16.2036 12.6567 19.026C12.6567 21.8485 14.953 24.1448 17.7755 24.1448C18.8805 24.146 19.9559 23.7877 20.8394 23.1241L23.5959 25.8806C23.7354 26.0054 23.9174 26.0719 24.1045 26.0667C24.2916 26.0615 24.4696 25.9848 24.6019 25.8525C24.7343 25.7201 24.8109 25.5421 24.8162 25.3551C24.8214 25.168 24.7548 24.986 24.6301 24.8464ZM14.1192 19.026C14.1192 18.3029 14.3337 17.596 14.7354 16.9947C15.1372 16.3935 15.7082 15.9248 16.3763 15.6481C17.0444 15.3714 17.7795 15.299 18.4888 15.44C19.198 15.5811 19.8495 15.9293 20.3608 16.4407C20.8722 16.952 21.2204 17.6035 21.3615 18.3127C21.5026 19.022 21.4302 19.7571 21.1534 20.4252C20.8767 21.0933 20.4081 21.6643 19.8068 22.0661C19.2055 22.4678 18.4986 22.6823 17.7755 22.6823C16.8061 22.6811 15.8768 22.2955 15.1914 21.6101C14.506 20.9247 14.1204 19.9954 14.1192 19.026Z" fill="#9A9FA9"/>
</svg>
