<svg width="27" height="26" viewBox="0 0 27 26" fill="none" xmlns="http://www.w3.org/2000/svg">
<rect width="26" height="26" rx="13" transform="matrix(-1 0 0 1 26.5 0)" fill="#4FD1D1"/>
<path d="M19.5 15.625C18.6 15.625 17.625 15.475 16.8 15.175H16.575C16.35 15.175 16.2 15.25 16.05 15.4L14.4 17.05C12.3 15.925 10.5 14.2 9.45 12.1L11.1 10.45C11.325 10.225 11.4 9.925 11.25 9.7C11.025 8.875 10.875 7.9 10.875 7C10.875 6.625 10.5 6.25 10.125 6.25H7.5C7.125 6.25 6.75 6.625 6.75 7C6.75 14.05 12.45 19.75 19.5 19.75C19.875 19.75 20.25 19.375 20.25 19V16.375C20.25 16 19.875 15.625 19.5 15.625ZM8.25 7.75H9.375C9.45 8.425 9.6 9.1 9.75 9.7L8.85 10.6C8.55 9.7 8.325 8.725 8.25 7.75ZM18.75 18.25C17.775 18.175 16.8 17.95 15.9 17.65L16.8 16.75C17.4 16.9 18.075 17.05 18.75 17.05V18.25ZM15.75 6.25V7.375H18.375L14.25 11.5L15 12.25L19.125 8.125V10.75H20.25V6.25H15.75Z" fill="white"/>
</svg>
