<svg width="158" height="92" viewBox="0 0 158 92" fill="none" xmlns="http://www.w3.org/2000/svg">
<rect x="0.5" y="0.5" width="157" height="91" rx="5.92373" stroke="#ECEDF3"/>
<path d="M67.4329 17.7303C67.6773 17.4684 67.9682 17.3316 68.3057 17.3199C68.6431 17.3083 68.9428 17.4246 69.2047 17.6689L72.7398 20.9676C72.929 21.1441 73.0388 21.369 73.0694 21.6425C73.1 21.916 73.0493 22.1817 72.9175 22.4396L70.7186 26.0212C70.5576 26.252 70.346 26.4424 70.0837 26.5922C69.8214 26.7421 69.5637 26.8214 69.3106 26.8302L65.3453 26.9674C65.1495 27.8189 65.0136 28.6718 64.9376 29.5262C64.8616 30.3805 64.8386 31.2436 64.8688 32.1154C64.8864 33.0299 64.9595 33.9213 65.0881 34.7897C65.2167 35.6581 65.4144 36.4889 65.6812 37.2821L69.7948 37.1609C70.0198 37.1531 70.2327 37.202 70.4334 37.3077C70.6342 37.4134 70.8374 37.5894 71.043 37.8357L73.5687 41.2537C73.7306 41.4593 73.8061 41.7066 73.795 41.9955C73.7838 42.2845 73.6833 42.5309 73.4932 42.7345L70.1946 46.2697C69.9502 46.5316 69.6593 46.6683 69.3218 46.68C68.9844 46.6917 68.6847 46.5754 68.4228 46.331C66.6043 44.6342 65.1776 42.5613 64.1425 40.1123C63.1075 37.6633 62.5413 35.0327 62.444 32.2204C62.3466 29.4082 62.7296 26.7447 63.5928 24.23C64.4561 21.7154 65.7361 19.5488 67.4329 17.7303ZM66.5862 39.6371C66.9228 40.4138 67.321 41.1391 67.7808 41.813C68.2405 42.4869 68.7347 43.1386 69.2633 43.7679L71.0551 41.8475L69.3704 39.5407L66.5862 39.6371ZM66.1072 24.5759L68.8913 24.4795L70.3689 22.021L68.4486 20.2292C67.9357 20.8664 67.4877 21.5506 67.1048 22.2818C66.7218 23.0131 66.3893 23.7778 66.1072 24.5759Z" fill="#9A9FA9"/>
<path d="M79.5556 37L77.9444 35.25L79.7222 33.25H74V30.75H79.7222L78 28.8125L79.5556 27L84 32.0625L79.5556 37Z" fill="#9A9FA9"/>
<path d="M90.5713 46.2693C90.327 46.5313 90.0362 46.6681 89.6987 46.6799C89.3612 46.6917 89.0615 46.5754 88.7996 46.3312L85.2634 43.0336C85.0742 42.8572 84.9643 42.6323 84.9336 42.3588C84.903 42.0854 84.9535 41.8196 85.0853 41.5616L87.2831 37.9794C87.444 37.7485 87.6556 37.5581 87.9178 37.4082C88.1801 37.2582 88.4378 37.1788 88.6909 37.17L92.6561 37.0315C92.8516 36.18 92.9873 35.327 93.063 34.4727C93.1388 33.6183 93.1614 32.7552 93.131 31.8834C93.1131 30.9689 93.0398 30.0775 92.9109 29.2091C92.782 28.3408 92.5841 27.51 92.317 26.7169L88.2034 26.8394C87.9784 26.8473 87.7655 26.7984 87.5648 26.6928C87.364 26.5872 87.1607 26.4113 86.955 26.165L84.4283 22.7478C84.2663 22.5422 84.1908 22.295 84.2018 22.006C84.2128 21.717 84.3133 21.4707 84.5033 21.2669L87.8009 17.7307C88.0451 17.4688 88.336 17.3319 88.6734 17.3201C89.0109 17.3084 89.3106 17.4246 89.5726 17.6689C91.3916 19.3651 92.819 21.4376 93.8548 23.8863C94.8906 26.3349 95.4576 28.9654 95.5558 31.7776C95.654 34.5898 95.2719 37.2534 94.4094 39.7684C93.5469 42.2833 92.2676 44.4503 90.5713 46.2693ZM91.4112 24.3623C91.0744 23.5856 90.676 22.8604 90.216 22.1867C89.7561 21.5129 89.2617 20.8614 88.7329 20.2323L86.9416 22.1532L88.6271 24.4595L91.4112 24.3623ZM91.8949 39.4233L89.1108 39.5205L87.634 41.9794L89.5549 43.7707C90.0676 43.1334 90.5153 42.449 90.8981 41.7176C91.2808 40.9863 91.6131 40.2215 91.8949 39.4233Z" fill="#9A9FA9"/>
<path d="M25.588 70.112C25.0747 70.112 24.5567 70.0933 24.034 70.056C23.5113 70.028 23.054 69.9627 22.662 69.86V60.438C22.8673 60.4007 23.0867 60.368 23.32 60.34C23.5533 60.3027 23.7913 60.2747 24.034 60.256C24.2767 60.2373 24.5147 60.2233 24.748 60.214C24.9907 60.2047 25.2193 60.2 25.434 60.2C26.022 60.2 26.568 60.2467 27.072 60.34C27.576 60.424 28.01 60.5687 28.374 60.774C28.7473 60.9793 29.0367 61.25 29.242 61.586C29.4473 61.922 29.55 62.3373 29.55 62.832C29.55 63.2893 29.438 63.6813 29.214 64.008C28.9993 64.3347 28.696 64.596 28.304 64.792C28.892 64.988 29.326 65.2773 29.606 65.66C29.886 66.0427 30.026 66.528 30.026 67.116C30.026 68.1147 29.662 68.866 28.934 69.37C28.206 69.8647 27.0907 70.112 25.588 70.112ZM24.398 65.632V68.586C24.594 68.6047 24.804 68.6187 25.028 68.628C25.252 68.6373 25.4573 68.642 25.644 68.642C26.008 68.642 26.344 68.6187 26.652 68.572C26.9693 68.5253 27.24 68.446 27.464 68.334C27.6973 68.2127 27.8793 68.054 28.01 67.858C28.15 67.662 28.22 67.41 28.22 67.102C28.22 66.5513 28.0193 66.1687 27.618 65.954C27.2167 65.7393 26.6613 65.632 25.952 65.632H24.398ZM24.398 64.246H25.644C26.316 64.246 26.8433 64.1527 27.226 63.966C27.6087 63.77 27.8 63.4247 27.8 62.93C27.8 62.4633 27.5993 62.132 27.198 61.936C26.806 61.74 26.2927 61.642 25.658 61.642C25.3873 61.642 25.1447 61.6467 24.93 61.656C24.7247 61.6653 24.5473 61.6793 24.398 61.698V64.246ZM37.9952 68.474V70H31.8632V60.298H33.6272V68.474H37.9952ZM39.3417 60.298H41.1057V70H39.3417V60.298ZM49.9676 70C49.6502 69.468 49.2956 68.8987 48.9036 68.292C48.5116 67.676 48.1056 67.06 47.6856 66.444C47.2656 65.8187 46.8362 65.2167 46.3976 64.638C45.9682 64.05 45.5576 63.5227 45.1656 63.056V70H43.4296V60.298H44.8716C45.2449 60.69 45.6462 61.1567 46.0756 61.698C46.5049 62.23 46.9342 62.7853 47.3636 63.364C47.8022 63.9427 48.2222 64.526 48.6236 65.114C49.0342 65.6927 49.3982 66.234 49.7156 66.738V60.298H51.4656V70H49.9676ZM55.5569 68.544C55.6595 68.5533 55.7949 68.5627 55.9629 68.572C56.1309 68.572 56.3595 68.572 56.6489 68.572C57.8342 68.572 58.7162 68.2733 59.2949 67.676C59.8829 67.0693 60.1769 66.2247 60.1769 65.142C60.1769 64.0407 59.8922 63.196 59.3229 62.608C58.7535 62.02 57.8715 61.726 56.6769 61.726C56.1542 61.726 55.7809 61.74 55.5569 61.768V68.544ZM62.0249 65.142C62.0249 65.982 61.8942 66.7147 61.6329 67.34C61.3715 67.956 60.9982 68.474 60.5129 68.894C60.0369 69.3047 59.4582 69.6127 58.7769 69.818C58.1049 70.014 57.3582 70.112 56.5369 70.112C56.1449 70.112 55.7015 70.0933 55.2069 70.056C54.7122 70.028 54.2409 69.9627 53.7929 69.86V60.438C54.2409 60.3353 54.7169 60.27 55.2209 60.242C55.7249 60.214 56.1729 60.2 56.5649 60.2C57.3769 60.2 58.1189 60.298 58.7909 60.494C59.4629 60.6807 60.0369 60.9793 60.5129 61.39C60.9982 61.7913 61.3715 62.3047 61.6329 62.93C61.8942 63.546 62.0249 64.2833 62.0249 65.142ZM73.9806 60.298V61.824H70.9986V70H69.2206V61.824H66.2386V60.298H73.9806ZM78.0001 60.2C79.4001 60.2 80.4687 60.4567 81.2061 60.97C81.9527 61.4833 82.3261 62.2673 82.3261 63.322C82.3261 64.638 81.6774 65.5293 80.3801 65.996C80.5574 66.2107 80.7581 66.472 80.9821 66.78C81.2061 67.088 81.4347 67.424 81.6681 67.788C81.9014 68.1427 82.1254 68.5113 82.3401 68.894C82.5547 69.2673 82.7461 69.636 82.9141 70H80.9401C80.7627 69.664 80.5714 69.328 80.3661 68.992C80.1607 68.6467 79.9507 68.3153 79.7361 67.998C79.5307 67.6713 79.3254 67.368 79.1201 67.088C78.9147 66.7987 78.7234 66.542 78.5461 66.318C78.4154 66.3273 78.3034 66.332 78.2101 66.332C78.1167 66.332 78.0281 66.332 77.9441 66.332H77.0901V70H75.3261V60.438C75.7554 60.3447 76.2127 60.284 76.6981 60.256C77.1834 60.2187 77.6174 60.2 78.0001 60.2ZM78.1261 61.726C77.7527 61.726 77.4074 61.74 77.0901 61.768V64.904H77.8601C78.2894 64.904 78.6674 64.8807 78.9941 64.834C79.3207 64.7873 79.5914 64.7033 79.8061 64.582C80.0301 64.4607 80.1981 64.2973 80.3101 64.092C80.4221 63.8867 80.4781 63.6253 80.4781 63.308C80.4781 63.0093 80.4221 62.7573 80.3101 62.552C80.1981 62.3467 80.0347 62.1833 79.8201 62.062C79.6147 61.9407 79.3674 61.8567 79.0781 61.81C78.7887 61.754 78.4714 61.726 78.1261 61.726ZM91.0766 70C90.946 69.6173 90.8106 69.2393 90.6706 68.866C90.5306 68.4927 90.3953 68.11 90.2646 67.718H86.1766C86.046 68.11 85.9106 68.4973 85.7706 68.88C85.64 69.2533 85.5093 69.6267 85.3786 70H83.5446C83.9086 68.964 84.254 68.0073 84.5806 67.13C84.9073 66.2527 85.2246 65.422 85.5326 64.638C85.85 63.854 86.1626 63.1073 86.4706 62.398C86.7786 61.6887 87.096 60.9887 87.4226 60.298H89.0886C89.4153 60.9887 89.7326 61.6887 90.0406 62.398C90.3486 63.1073 90.6566 63.854 90.9646 64.638C91.282 65.422 91.604 66.2527 91.9306 67.13C92.2666 68.0073 92.6166 68.964 92.9806 70H91.0766ZM88.2206 62.174C88.006 62.6687 87.7586 63.2707 87.4786 63.98C87.208 64.6893 86.9233 65.4593 86.6246 66.29H89.8166C89.518 65.4593 89.2286 64.6847 88.9486 63.966C88.6686 63.2473 88.426 62.65 88.2206 62.174ZM100.745 70C100.428 69.468 100.073 68.8987 99.6809 68.292C99.2889 67.676 98.8829 67.06 98.4629 66.444C98.0429 65.8187 97.6136 65.2167 97.1749 64.638C96.7456 64.05 96.3349 63.5227 95.9429 63.056V70H94.2069V60.298H95.6489C96.0223 60.69 96.4236 61.1567 96.8529 61.698C97.2823 62.23 97.7116 62.7853 98.1409 63.364C98.5796 63.9427 98.9996 64.526 99.4009 65.114C99.8116 65.6927 100.176 66.234 100.493 66.738V60.298H102.243V70H100.745ZM106.922 68.684C107.557 68.684 108.019 68.5767 108.308 68.362C108.598 68.1473 108.742 67.844 108.742 67.452C108.742 67.2187 108.691 67.018 108.588 66.85C108.495 66.682 108.355 66.5327 108.168 66.402C107.991 66.262 107.772 66.136 107.51 66.024C107.249 65.9027 106.95 65.786 106.614 65.674C106.278 65.5527 105.952 65.422 105.634 65.282C105.326 65.1327 105.051 64.9507 104.808 64.736C104.575 64.5213 104.384 64.2647 104.234 63.966C104.094 63.6673 104.024 63.308 104.024 62.888C104.024 62.0107 104.328 61.3247 104.934 60.83C105.541 60.326 106.367 60.074 107.412 60.074C108.019 60.074 108.556 60.144 109.022 60.284C109.498 60.4147 109.872 60.5593 110.142 60.718L109.596 62.146C109.279 61.9687 108.929 61.8333 108.546 61.74C108.173 61.6467 107.786 61.6 107.384 61.6C106.908 61.6 106.535 61.698 106.264 61.894C106.003 62.09 105.872 62.3653 105.872 62.72C105.872 62.9347 105.914 63.1213 105.998 63.28C106.092 63.4293 106.218 63.5647 106.376 63.686C106.544 63.8073 106.736 63.9193 106.95 64.022C107.174 64.1247 107.417 64.2227 107.678 64.316C108.136 64.484 108.542 64.6567 108.896 64.834C109.26 65.002 109.564 65.2073 109.806 65.45C110.058 65.6833 110.25 65.9633 110.38 66.29C110.511 66.6073 110.576 66.9947 110.576 67.452C110.576 68.3293 110.264 69.0107 109.638 69.496C109.022 69.972 108.117 70.21 106.922 70.21C106.521 70.21 106.152 70.182 105.816 70.126C105.49 70.0793 105.196 70.0187 104.934 69.944C104.682 69.8693 104.463 69.7947 104.276 69.72C104.09 69.636 103.94 69.5613 103.828 69.496L104.346 68.054C104.598 68.194 104.939 68.334 105.368 68.474C105.798 68.614 106.316 68.684 106.922 68.684ZM112.131 70V60.298H118.263V61.796H113.895V64.274H117.773V65.772H113.895V70H112.131ZM119.842 70V60.298H126.072V61.796H121.606V64.19H125.582V65.66H121.606V68.502H126.408V70H119.842ZM130.719 60.2C132.119 60.2 133.187 60.4567 133.925 60.97C134.671 61.4833 135.045 62.2673 135.045 63.322C135.045 64.638 134.396 65.5293 133.099 65.996C133.276 66.2107 133.477 66.472 133.701 66.78C133.925 67.088 134.153 67.424 134.387 67.788C134.62 68.1427 134.844 68.5113 135.059 68.894C135.273 69.2673 135.465 69.636 135.633 70H133.659C133.481 69.664 133.29 69.328 133.085 68.992C132.879 68.6467 132.669 68.3153 132.455 67.998C132.249 67.6713 132.044 67.368 131.839 67.088C131.633 66.7987 131.442 66.542 131.265 66.318C131.134 66.3273 131.022 66.332 130.929 66.332C130.835 66.332 130.747 66.332 130.663 66.332H129.809V70H128.045V60.438C128.474 60.3447 128.931 60.284 129.417 60.256C129.902 60.2187 130.336 60.2 130.719 60.2ZM130.845 61.726C130.471 61.726 130.126 61.74 129.809 61.768V64.904H130.579C131.008 64.904 131.386 64.8807 131.713 64.834C132.039 64.7873 132.31 64.7033 132.525 64.582C132.749 64.4607 132.917 64.2973 133.029 64.092C133.141 63.8867 133.197 63.6253 133.197 63.308C133.197 63.0093 133.141 62.7573 133.029 62.552C132.917 62.3467 132.753 62.1833 132.539 62.062C132.333 61.9407 132.086 61.8567 131.797 61.81C131.507 61.754 131.19 61.726 130.845 61.726Z" fill="#9A9FA9"/>
</svg>
