<svg xmlns="http://www.w3.org/2000/svg" viewBox="0 0 798.06 777.06"><defs><style>.a{fill:#ed1c24;}.b,.e,.f,.g{fill:none;}.b{stroke:#fff;stroke-width:22px;}.b,.c,.e,.f,.g{stroke-miterlimit:10;}.c,.d{fill:#fff;}.c,.e,.f,.g{stroke:#ed1c24;}.c{stroke-width:15.11px;}.e,.g{stroke-linecap:round;}.e{stroke-width:15.52px;}.f,.g{stroke-width:15.48px;}</style></defs><circle class="a" cx="384.5" cy="392.56" r="384.5"/><circle class="b" cx="384.5" cy="392.56" r="332.5"/><circle class="c" cx="570" cy="228.06" r="220.5"/><path class="d" d="M666.58,405.39c-21.22-11.8-83,49.28-68.89,82.69-7.79,41.19,97.69,253.61,274,329.84,0,0,84.8-4.89,88-77.46l-60-61.66s-52.35,7-52,41.32C789.77,712,692,596.47,686.11,527.87c0,0,29.35-19.14,42.48-39.36C727.27,471.53,666.58,405.39,666.58,405.39Z" transform="translate(-471 -161.94)"/><rect class="a" x="514.56" y="45.01" width="127.44" height="247.53" rx="63.72"/><path class="e" d="M1138,395.36a83.12,83.12,0,0,1-83.12,83.12H1043.1A83.11,83.11,0,0,1,960,395.36" transform="translate(-471 -161.94)"/><line class="f" x1="577.72" y1="316.82" x2="577.72" y2="377.91"/><line class="g" x1="528.45" y1="377.91" x2="627" y2="377.91"/></svg>