<svg width="180" height="68" viewBox="0 0 180 68" fill="none" xmlns="http://www.w3.org/2000/svg">
<path d="M104.473 29.8125C102.331 26.1099 99.0309 23.4549 95.1792 22.1963C97.0844 21.0621 98.5647 19.3338 99.3926 17.2769C100.221 15.22 100.35 12.9482 99.7622 10.8104C99.1741 8.67254 97.9004 6.78688 96.1368 5.44297C94.3732 4.09906 92.2172 3.37122 90 3.37122C87.7827 3.37122 85.6267 4.09906 83.8631 5.44297C82.0995 6.78688 80.8259 8.67254 80.2377 10.8104C79.6495 12.9482 79.7794 15.22 80.6073 17.2769C81.4353 19.3338 82.9155 21.0621 84.8207 22.1963C80.969 23.4535 77.6685 26.1085 75.5268 29.8125C75.4483 29.9406 75.3962 30.0831 75.3736 30.2316C75.351 30.3802 75.3584 30.5317 75.3954 30.6773C75.4323 30.8229 75.498 30.9597 75.5887 31.0795C75.6793 31.1993 75.7931 31.2997 75.9231 31.3749C76.0532 31.45 76.1971 31.4983 76.3461 31.517C76.4952 31.5356 76.6465 31.5243 76.7911 31.4835C76.9357 31.4427 77.0706 31.3734 77.188 31.2797C77.3054 31.1859 77.4028 31.0696 77.4745 30.9375C80.1239 26.3588 84.8067 23.625 90 23.625C95.1932 23.625 99.876 26.3588 102.525 30.9375C102.597 31.0696 102.695 31.1859 102.812 31.2797C102.929 31.3734 103.064 31.4427 103.209 31.4835C103.353 31.5243 103.505 31.5356 103.654 31.517C103.803 31.4983 103.947 31.45 104.077 31.3749C104.207 31.2997 104.321 31.1993 104.411 31.0795C104.502 30.9597 104.568 30.8229 104.605 30.6773C104.641 30.5317 104.649 30.3802 104.626 30.2316C104.604 30.0831 104.552 29.9406 104.473 29.8125ZM82.125 13.5C82.125 11.9425 82.5868 10.42 83.4521 9.12493C84.3174 7.82989 85.5474 6.82053 86.9863 6.22449C88.4253 5.62845 90.0087 5.4725 91.5363 5.77636C93.0639 6.08022 94.4671 6.83024 95.5684 7.93158C96.6698 9.03291 97.4198 10.4361 97.7236 11.9637C98.0275 13.4913 97.8715 15.0747 97.2755 16.5137C96.6795 17.9526 95.6701 19.1825 94.3751 20.0479C93.08 20.9132 91.5575 21.375 90 21.375C87.9121 21.3728 85.9103 20.5424 84.434 19.066C82.9576 17.5897 82.1272 15.5879 82.125 13.5Z" fill="#9A9FA9"/>
<path d="M63.256 62.24C62.424 62.24 61.6773 62.112 61.016 61.856C60.3547 61.6 59.7947 61.2267 59.336 60.736C58.8773 60.2347 58.5253 59.6267 58.28 58.912C58.0347 58.1973 57.912 57.376 57.912 56.448C57.912 55.52 58.0507 54.6987 58.328 53.984C58.616 53.2693 59.0053 52.6667 59.496 52.176C59.9867 51.6747 60.5627 51.296 61.224 51.04C61.8853 50.784 62.5947 50.656 63.352 50.656C63.8107 50.656 64.2267 50.6933 64.6 50.768C64.9733 50.832 65.2987 50.9067 65.576 50.992C65.8533 51.0773 66.0827 51.168 66.264 51.264C66.4453 51.36 66.5733 51.4293 66.648 51.472L66.056 53.12C65.8 52.96 65.432 52.8107 64.952 52.672C64.4827 52.5227 63.9707 52.448 63.416 52.448C62.936 52.448 62.488 52.5333 62.072 52.704C61.656 52.864 61.2933 53.1093 60.984 53.44C60.6853 53.7707 60.4507 54.1867 60.28 54.688C60.1093 55.1893 60.024 55.7707 60.024 56.432C60.024 57.0187 60.088 57.5573 60.216 58.048C60.3547 58.5387 60.5627 58.9653 60.84 59.328C61.1173 59.68 61.4693 59.9573 61.896 60.16C62.3227 60.352 62.8347 60.448 63.432 60.448C64.1467 60.448 64.728 60.3787 65.176 60.24C65.624 60.0907 65.9707 59.952 66.216 59.824L66.76 61.472C66.632 61.5573 66.456 61.6427 66.232 61.728C66.0187 61.8133 65.7627 61.8987 65.464 61.984C65.1653 62.0587 64.8293 62.1173 64.456 62.16C64.0827 62.2133 63.6827 62.24 63.256 62.24ZM75.8 57.808C75.8 58.4693 75.704 59.072 75.512 59.616C75.32 60.16 75.048 60.624 74.696 61.008C74.344 61.392 73.9173 61.6907 73.416 61.904C72.9253 62.1173 72.3813 62.224 71.784 62.224C71.1867 62.224 70.6427 62.1173 70.152 61.904C69.6613 61.6907 69.24 61.392 68.888 61.008C68.536 60.624 68.2587 60.16 68.056 59.616C67.864 59.072 67.768 58.4693 67.768 57.808C67.768 57.1467 67.864 56.5493 68.056 56.016C68.2587 55.472 68.536 55.008 68.888 54.624C69.2507 54.24 69.6773 53.9467 70.168 53.744C70.6587 53.5307 71.1973 53.424 71.784 53.424C72.3707 53.424 72.9093 53.5307 73.4 53.744C73.9013 53.9467 74.328 54.24 74.68 54.624C75.032 55.008 75.304 55.472 75.496 56.016C75.6987 56.5493 75.8 57.1467 75.8 57.808ZM73.816 57.808C73.816 56.976 73.6347 56.32 73.272 55.84C72.92 55.3493 72.424 55.104 71.784 55.104C71.144 55.104 70.6427 55.3493 70.28 55.84C69.928 56.32 69.752 56.976 69.752 57.808C69.752 58.6507 69.928 59.3173 70.28 59.808C70.6427 60.2987 71.144 60.544 71.784 60.544C72.424 60.544 72.92 60.2987 73.272 59.808C73.6347 59.3173 73.816 58.6507 73.816 57.808ZM77.7945 53.904C78.1678 53.7973 78.6532 53.696 79.2505 53.6C79.8478 53.504 80.5092 53.456 81.2345 53.456C81.9172 53.456 82.4878 53.552 82.9465 53.744C83.4052 53.9253 83.7678 54.1867 84.0345 54.528C84.3118 54.8587 84.5038 55.264 84.6105 55.744C84.7278 56.2133 84.7865 56.7307 84.7865 57.296V62H82.8505V57.6C82.8505 57.152 82.8185 56.7733 82.7545 56.464C82.7012 56.144 82.6052 55.888 82.4665 55.696C82.3385 55.4933 82.1572 55.3493 81.9225 55.264C81.6985 55.168 81.4212 55.12 81.0905 55.12C80.8452 55.12 80.5892 55.136 80.3225 55.168C80.0558 55.2 79.8585 55.2267 79.7305 55.248V62H77.7945V53.904ZM87.0579 51.424L88.9939 51.104V53.632H91.9699V55.248H88.9939V58.656C88.9939 59.328 89.1005 59.808 89.3139 60.096C89.5272 60.384 89.8899 60.528 90.4019 60.528C90.7539 60.528 91.0632 60.4907 91.3299 60.416C91.6072 60.3413 91.8259 60.272 91.9859 60.208L92.3059 61.744C92.0819 61.84 91.7885 61.936 91.4259 62.032C91.0632 62.1387 90.6365 62.192 90.1459 62.192C89.5485 62.192 89.0472 62.112 88.6419 61.952C88.2472 61.792 87.9325 61.5627 87.6979 61.264C87.4632 60.9547 87.2979 60.5867 87.2019 60.16C87.1059 59.7227 87.0579 59.2267 87.0579 58.672V51.424ZM96.7854 60.64C97.3827 60.64 97.836 60.608 98.1454 60.544V58.4C98.0387 58.368 97.884 58.336 97.6814 58.304C97.4787 58.272 97.2547 58.256 97.0094 58.256C96.796 58.256 96.5774 58.272 96.3534 58.304C96.14 58.336 95.9427 58.3947 95.7614 58.48C95.5907 58.5653 95.452 58.688 95.3454 58.848C95.2387 58.9973 95.1854 59.1893 95.1854 59.424C95.1854 59.8827 95.3294 60.2027 95.6174 60.384C95.9054 60.5547 96.2947 60.64 96.7854 60.64ZM96.6254 53.424C97.2654 53.424 97.804 53.504 98.2414 53.664C98.6787 53.824 99.0254 54.048 99.2814 54.336C99.548 54.624 99.7347 54.976 99.8414 55.392C99.9587 55.7973 100.017 56.2453 100.017 56.736V61.808C99.7187 61.872 99.2654 61.9467 98.6574 62.032C98.06 62.128 97.3827 62.176 96.6254 62.176C96.124 62.176 95.6654 62.128 95.2494 62.032C94.8334 61.936 94.476 61.7813 94.1774 61.568C93.8894 61.3547 93.66 61.0773 93.4894 60.736C93.3294 60.3947 93.2494 59.9733 93.2494 59.472C93.2494 58.992 93.34 58.5867 93.5214 58.256C93.7134 57.9253 93.9694 57.6587 94.2894 57.456C94.6094 57.2427 94.9774 57.0933 95.3934 57.008C95.82 56.912 96.2627 56.864 96.7214 56.864C96.9347 56.864 97.1587 56.88 97.3934 56.912C97.628 56.9333 97.8787 56.976 98.1454 57.04V56.72C98.1454 56.496 98.1187 56.2827 98.0654 56.08C98.012 55.8773 97.916 55.7013 97.7774 55.552C97.6494 55.392 97.4734 55.2693 97.2494 55.184C97.036 55.0987 96.764 55.056 96.4334 55.056C95.9854 55.056 95.5747 55.088 95.2014 55.152C94.828 55.216 94.524 55.2907 94.2894 55.376L94.0494 53.808C94.2947 53.7227 94.652 53.6373 95.1214 53.552C95.5907 53.4667 96.092 53.424 96.6254 53.424ZM101.924 57.824C101.924 57.2053 102.02 56.6293 102.212 56.096C102.404 55.552 102.676 55.0827 103.028 54.688C103.391 54.2933 103.828 53.984 104.34 53.76C104.852 53.536 105.428 53.424 106.068 53.424C106.858 53.424 107.604 53.568 108.308 53.856L107.892 55.44C107.668 55.344 107.412 55.264 107.124 55.2C106.847 55.136 106.548 55.104 106.228 55.104C105.471 55.104 104.895 55.344 104.5 55.824C104.106 56.2933 103.908 56.96 103.908 57.824C103.908 58.656 104.095 59.3173 104.468 59.808C104.842 60.288 105.471 60.528 106.356 60.528C106.687 60.528 107.012 60.496 107.332 60.432C107.652 60.368 107.93 60.288 108.164 60.192L108.436 61.792C108.223 61.8987 107.898 61.9947 107.46 62.08C107.034 62.1653 106.591 62.208 106.132 62.208C105.418 62.208 104.794 62.1013 104.26 61.888C103.738 61.664 103.3 61.36 102.948 60.976C102.607 60.5813 102.351 60.1173 102.18 59.584C102.01 59.04 101.924 58.4533 101.924 57.824ZM109.839 51.424L111.775 51.104V53.632H114.751V55.248H111.775V58.656C111.775 59.328 111.882 59.808 112.095 60.096C112.308 60.384 112.671 60.528 113.183 60.528C113.535 60.528 113.844 60.4907 114.111 60.416C114.388 60.3413 114.607 60.272 114.767 60.208L115.087 61.744C114.863 61.84 114.57 61.936 114.207 62.032C113.844 62.1387 113.418 62.192 112.927 62.192C112.33 62.192 111.828 62.112 111.423 61.952C111.028 61.792 110.714 61.5627 110.479 61.264C110.244 60.9547 110.079 60.5867 109.983 60.16C109.887 59.7227 109.839 59.2267 109.839 58.672V51.424ZM118.719 60.608C119.231 60.608 119.604 60.5493 119.839 60.432C120.073 60.304 120.191 60.0907 120.191 59.792C120.191 59.5147 120.063 59.2853 119.807 59.104C119.561 58.9227 119.151 58.7253 118.575 58.512C118.223 58.384 117.897 58.2507 117.599 58.112C117.311 57.9627 117.06 57.792 116.847 57.6C116.633 57.408 116.463 57.1787 116.335 56.912C116.217 56.6347 116.159 56.2987 116.159 55.904C116.159 55.136 116.441 54.5333 117.007 54.096C117.572 53.648 118.34 53.424 119.311 53.424C119.801 53.424 120.271 53.472 120.719 53.568C121.167 53.6533 121.503 53.7387 121.727 53.824L121.375 55.392C121.161 55.296 120.889 55.2107 120.559 55.136C120.228 55.0507 119.844 55.008 119.407 55.008C119.012 55.008 118.692 55.0773 118.447 55.216C118.201 55.344 118.079 55.5467 118.079 55.824C118.079 55.9627 118.1 56.0853 118.143 56.192C118.196 56.2987 118.281 56.4 118.399 56.496C118.516 56.5813 118.671 56.672 118.863 56.768C119.055 56.8533 119.289 56.944 119.567 57.04C120.025 57.2107 120.415 57.3813 120.735 57.552C121.055 57.712 121.316 57.8987 121.519 58.112C121.732 58.3147 121.887 58.5493 121.983 58.816C122.079 59.0827 122.127 59.4027 122.127 59.776C122.127 60.576 121.828 61.184 121.231 61.6C120.644 62.0053 119.801 62.208 118.703 62.208C117.967 62.208 117.375 62.144 116.927 62.016C116.479 61.8987 116.164 61.8027 115.983 61.728L116.319 60.112C116.607 60.2293 116.948 60.3413 117.343 60.448C117.748 60.5547 118.207 60.608 118.719 60.608Z" fill="#9A9FA9"/>
</svg>
