<svg width="180" height="68" viewBox="0 0 180 68" fill="none" xmlns="http://www.w3.org/2000/svg">
<path d="M82.3772 2.39998C81.462 2.29848 80.5384 2.29848 79.6232 2.39998C79.2515 2.44153 78.9047 2.60736 78.639 2.87063C78.3733 3.13389 78.2042 3.47915 78.1592 3.85048C78.0504 4.78031 78.0504 5.71965 78.1592 6.64948C78.2492 7.41898 78.8642 8.01598 79.6232 8.10148C80.5385 8.20198 81.462 8.20198 82.3772 8.10148C83.1362 8.01598 83.7512 7.41898 83.8412 6.64948C83.95 5.71965 83.95 4.78031 83.8412 3.85048C83.7962 3.47915 83.6272 3.13389 83.3615 2.87063C83.0958 2.60736 82.749 2.44153 82.3772 2.39998ZM91.3772 2.39998C90.462 2.29848 89.5384 2.29848 88.6232 2.39998C88.2515 2.44153 87.9047 2.60736 87.639 2.87063C87.3733 3.13389 87.2042 3.47915 87.1592 3.85048C87.0504 4.7803 87.0504 5.71965 87.1592 6.64948C87.2492 7.41898 87.8642 8.01598 88.6232 8.10148C89.5385 8.20198 90.462 8.20198 91.3772 8.10148C92.1362 8.01598 92.7512 7.41898 92.8412 6.64948C92.9501 5.71965 92.9501 4.7803 92.8412 3.85048C92.7962 3.47915 92.6272 3.13389 92.3615 2.87063C92.0958 2.60736 91.749 2.44153 91.3772 2.39998ZM100.377 2.39998C99.462 2.29848 98.5384 2.29848 97.6232 2.39998C97.2515 2.44153 96.9047 2.60736 96.639 2.87063C96.3733 3.13389 96.2042 3.47915 96.1592 3.85048C96.0504 4.7803 96.0504 5.71965 96.1592 6.64948C96.2492 7.41898 96.8642 8.01598 97.6232 8.10148C98.5385 8.20198 99.462 8.20198 100.377 8.10148C101.136 8.01598 101.751 7.41898 101.841 6.64948C101.95 5.71965 101.95 4.7803 101.841 3.85048C101.796 3.47915 101.627 3.13389 101.361 2.87063C101.096 2.60736 100.749 2.44153 100.377 2.39998ZM82.3772 10.65C81.462 10.5485 80.5384 10.5485 79.6232 10.65C79.2515 10.6915 78.9047 10.8574 78.639 11.1206C78.3733 11.3839 78.2042 11.7291 78.1592 12.1005C78.0504 13.0303 78.0504 13.9696 78.1592 14.8995C78.2492 15.669 78.8642 16.266 79.6232 16.3515C80.5385 16.452 81.462 16.452 82.3772 16.3515C83.1362 16.266 83.7512 15.669 83.8412 14.8995C83.95 13.9696 83.95 13.0303 83.8412 12.1005C83.7962 11.7291 83.6272 11.3839 83.3615 11.1206C83.0958 10.8574 82.749 10.6915 82.3772 10.65ZM91.3772 10.65C90.462 10.5485 89.5384 10.5485 88.6232 10.65C88.2515 10.6915 87.9047 10.8574 87.639 11.1206C87.3733 11.3839 87.2042 11.7291 87.1592 12.1005C87.0504 13.0303 87.0504 13.9697 87.1592 14.8995C87.2492 15.669 87.8642 16.266 88.6232 16.3515C89.5385 16.452 90.462 16.452 91.3772 16.3515C92.1362 16.266 92.7512 15.669 92.8412 14.8995C92.9501 13.9697 92.9501 13.0303 92.8412 12.1005C92.7962 11.7291 92.6272 11.3839 92.3615 11.1206C92.0958 10.8574 91.749 10.6915 91.3772 10.65ZM100.377 10.65C99.462 10.5485 98.5384 10.5485 97.6232 10.65C97.2515 10.6915 96.9047 10.8574 96.639 11.1206C96.3733 11.3839 96.2042 11.7291 96.1592 12.1005C96.0504 13.0303 96.0504 13.9697 96.1592 14.8995C96.2492 15.669 96.8642 16.266 97.6232 16.3515C98.5385 16.452 99.462 16.452 100.377 16.3515C101.136 16.266 101.751 15.669 101.841 14.8995C101.95 13.9697 101.95 13.0303 101.841 12.1005C101.796 11.7291 101.627 11.3839 101.361 11.1206C101.096 10.8574 100.749 10.6915 100.377 10.65ZM82.3772 18.9C81.462 18.7984 80.5384 18.7984 79.6232 18.9C79.2515 18.9415 78.9047 19.1074 78.639 19.3706C78.3733 19.6339 78.2042 19.9792 78.1592 20.3505C78.0504 21.2803 78.0504 22.2197 78.1592 23.1495C78.2492 23.919 78.8642 24.516 79.6232 24.6015C80.5385 24.702 81.462 24.702 82.3772 24.6015C83.1362 24.516 83.7512 23.919 83.8412 23.1495C83.95 22.2196 83.95 21.2803 83.8412 20.3505C83.7962 19.9792 83.6272 19.6339 83.3615 19.3706C83.0958 19.1074 82.749 18.9415 82.3772 18.9ZM91.3772 18.9C90.462 18.7984 89.5384 18.7984 88.6232 18.9C88.2515 18.9415 87.9047 19.1074 87.639 19.3706C87.3733 19.6339 87.2042 19.9792 87.1592 20.3505C87.0504 21.2803 87.0504 22.2197 87.1592 23.1495C87.2492 23.919 87.8642 24.516 88.6232 24.6015C89.5385 24.702 90.462 24.702 91.3772 24.6015C92.1362 24.516 92.7512 23.919 92.8412 23.1495C92.9501 22.2197 92.9501 21.2803 92.8412 20.3505C92.7962 19.9792 92.6272 19.6339 92.3615 19.3706C92.0958 19.1074 91.749 18.9415 91.3772 18.9ZM91.3772 27.15C90.462 27.0484 89.5384 27.0484 88.6232 27.15C88.2515 27.1915 87.9047 27.3574 87.639 27.6206C87.3733 27.8839 87.2042 28.2291 87.1592 28.6005C87.0504 29.5303 87.0504 30.4697 87.1592 31.3995C87.2492 32.169 87.8642 32.766 88.6232 32.8515C89.5385 32.952 90.462 32.952 91.3772 32.8515C92.1362 32.766 92.7512 32.169 92.8412 31.3995C92.9501 30.4697 92.9501 29.5303 92.8412 28.6005C92.7962 28.2291 92.6272 27.8839 92.3615 27.6206C92.0958 27.3574 91.749 27.1915 91.3772 27.15ZM100.377 18.9C99.462 18.7984 98.5384 18.7984 97.6232 18.9C97.2515 18.9415 96.9047 19.1074 96.639 19.3706C96.3733 19.6339 96.2042 19.9792 96.1592 20.3505C96.0504 21.2803 96.0504 22.2197 96.1592 23.1495C96.2492 23.919 96.8642 24.516 97.6232 24.6015C98.5385 24.702 99.462 24.702 100.377 24.6015C101.136 24.516 101.751 23.919 101.841 23.1495C101.95 22.2197 101.95 21.2803 101.841 20.3505C101.796 19.9792 101.627 19.6339 101.361 19.3706C101.096 19.1074 100.749 18.9415 100.377 18.9Z" fill="#4C525C"/>
<path d="M78.344 60.336C78.4613 60.3467 78.616 60.3573 78.808 60.368C79 60.368 79.2613 60.368 79.592 60.368C80.9467 60.368 81.9547 60.0267 82.616 59.344C83.288 58.6507 83.624 57.6853 83.624 56.448C83.624 55.1893 83.2987 54.224 82.648 53.552C81.9973 52.88 80.9893 52.544 79.624 52.544C79.0267 52.544 78.6 52.56 78.344 52.592V60.336ZM85.736 56.448C85.736 57.408 85.5867 58.2453 85.288 58.96C84.9893 59.664 84.5627 60.256 84.008 60.736C83.464 61.2053 82.8027 61.5573 82.024 61.792C81.256 62.016 80.4027 62.128 79.464 62.128C79.016 62.128 78.5093 62.1067 77.944 62.064C77.3787 62.032 76.84 61.9573 76.328 61.84V51.072C76.84 50.9547 77.384 50.88 77.96 50.848C78.536 50.816 79.048 50.8 79.496 50.8C80.424 50.8 81.272 50.912 82.04 51.136C82.808 51.3493 83.464 51.6907 84.008 52.16C84.5627 52.6187 84.9893 53.2053 85.288 53.92C85.5867 54.624 85.736 55.4667 85.736 56.448ZM89.7934 62H87.8574V53.632H89.7934V62ZM90.0014 51.184C90.0014 51.5467 89.884 51.8347 89.6494 52.048C89.4147 52.2613 89.1374 52.368 88.8174 52.368C88.4867 52.368 88.204 52.2613 87.9694 52.048C87.7347 51.8347 87.6174 51.5467 87.6174 51.184C87.6174 50.8107 87.7347 50.5173 87.9694 50.304C88.204 50.0907 88.4867 49.984 88.8174 49.984C89.1374 49.984 89.4147 50.0907 89.6494 50.304C89.884 50.5173 90.0014 50.8107 90.0014 51.184ZM95.2073 60.64C95.8046 60.64 96.2579 60.608 96.5673 60.544V58.4C96.4606 58.368 96.3059 58.336 96.1033 58.304C95.9006 58.272 95.6766 58.256 95.4313 58.256C95.2179 58.256 94.9993 58.272 94.7753 58.304C94.5619 58.336 94.3646 58.3947 94.1833 58.48C94.0126 58.5653 93.8739 58.688 93.7673 58.848C93.6606 58.9973 93.6073 59.1893 93.6073 59.424C93.6073 59.8827 93.7513 60.2027 94.0393 60.384C94.3273 60.5547 94.7166 60.64 95.2073 60.64ZM95.0473 53.424C95.6873 53.424 96.2259 53.504 96.6633 53.664C97.1006 53.824 97.4473 54.048 97.7033 54.336C97.9699 54.624 98.1566 54.976 98.2633 55.392C98.3806 55.7973 98.4393 56.2453 98.4393 56.736V61.808C98.1406 61.872 97.6873 61.9467 97.0793 62.032C96.4819 62.128 95.8046 62.176 95.0473 62.176C94.5459 62.176 94.0873 62.128 93.6713 62.032C93.2553 61.936 92.8979 61.7813 92.5993 61.568C92.3113 61.3547 92.0819 61.0773 91.9113 60.736C91.7513 60.3947 91.6713 59.9733 91.6713 59.472C91.6713 58.992 91.7619 58.5867 91.9433 58.256C92.1353 57.9253 92.3913 57.6587 92.7113 57.456C93.0313 57.2427 93.3993 57.0933 93.8153 57.008C94.2419 56.912 94.6846 56.864 95.1432 56.864C95.3566 56.864 95.5806 56.88 95.8153 56.912C96.0499 56.9333 96.3006 56.976 96.5673 57.04V56.72C96.5673 56.496 96.5406 56.2827 96.4873 56.08C96.4339 55.8773 96.3379 55.7013 96.1993 55.552C96.0713 55.392 95.8953 55.2693 95.6713 55.184C95.4579 55.0987 95.1859 55.056 94.8553 55.056C94.4073 55.056 93.9966 55.088 93.6233 55.152C93.2499 55.216 92.9459 55.2907 92.7113 55.376L92.4713 53.808C92.7166 53.7227 93.0739 53.6373 93.5433 53.552C94.0126 53.4667 94.5139 53.424 95.0473 53.424ZM103.722 62.16C103.146 62.1493 102.666 62.0853 102.282 61.968C101.909 61.8507 101.61 61.6853 101.386 61.472C101.162 61.248 101.002 60.976 100.906 60.656C100.821 60.3253 100.778 59.952 100.778 59.536V49.904L102.714 49.584V59.168C102.714 59.4027 102.73 59.6 102.762 59.76C102.805 59.92 102.874 60.0587 102.97 60.176C103.066 60.2827 103.194 60.368 103.354 60.432C103.525 60.4853 103.738 60.528 103.994 60.56L103.722 62.16Z" fill="#4C525C"/>
</svg>
