<svg width="320" height="52" viewBox="0 0 320 52" fill="none" xmlns="http://www.w3.org/2000/svg">
<rect width="320" height="52" rx="12" fill="#EB5757"/>
<g clip-path="url(#clip0_10799_17876)">
<g clip-path="url(#clip1_10799_17876)">
<path d="M164.954 29.1606L164.952 29.1602C164.529 29.0273 164.057 29.124 163.718 29.4626L161.325 31.8556C158.25 30.2739 155.726 27.7496 154.144 24.6748L156.537 22.2818C156.876 21.9432 156.973 21.4706 156.84 21.0478L156.84 21.0478L156.839 21.0464C156.432 19.812 156.211 18.4893 156.211 17.1111C156.211 16.7899 156.084 16.4819 155.856 16.2547C155.629 16.0276 155.321 15.9 155 15.9H151.111C150.79 15.9 150.482 16.0276 150.255 16.2547C150.028 16.4819 149.9 16.7899 149.9 17.1111C149.9 22.1473 151.901 26.9772 155.462 30.5383C159.023 34.0994 163.853 36.1 168.889 36.1C169.21 36.1 169.518 35.9724 169.745 35.7453C169.972 35.5181 170.1 35.2101 170.1 34.8889V31C170.1 30.6788 169.972 30.3707 169.745 30.1436C169.518 29.9165 169.21 29.7889 168.889 29.7889C167.511 29.7889 166.188 29.5684 164.954 29.1606Z" fill="white" stroke="white" stroke-width="0.2"/>
</g>
</g>
<defs>
<clipPath id="clip0_10799_17876">
<rect width="20" height="20" fill="white" transform="translate(150 16)"/>
</clipPath>
<clipPath id="clip1_10799_17876">
<rect width="20" height="20" fill="white" transform="translate(150 16)"/>
</clipPath>
</defs>
</svg>
