<svg width="98" height="92" viewBox="0 0 98 92" fill="none" xmlns="http://www.w3.org/2000/svg">
<rect x="0.5" y="0.5" width="97" height="91" rx="5.92373" stroke="#ECEDF3"/>
<mask id="mask0_10799_17926" style="mask-type:alpha" maskUnits="userSpaceOnUse" x="34" y="17" width="30" height="30">
<rect x="34" y="17" width="30" height="30" fill="#D9D9D9"/>
</mask>
<g mask="url(#mask0_10799_17926)">
<path d="M50.25 40.75V23.25H57.75V40.75H50.25ZM40.25 40.75V23.25H47.75V40.75H40.25ZM52.75 38.25H55.25V25.75H52.75V38.25ZM42.75 38.25H45.25V25.75H42.75V38.25Z" fill="#9A9FA9"/>
</g>
<path d="M36.64 60.298H38.404V70H36.64V65.702H32.426V70H30.662V60.298H32.426V64.176H36.64V60.298ZM42.1665 65.142C42.1665 65.674 42.2318 66.1593 42.3625 66.598C42.4932 67.0273 42.6798 67.396 42.9225 67.704C43.1745 68.0027 43.4778 68.236 43.8325 68.404C44.1872 68.572 44.5885 68.656 45.0365 68.656C45.4752 68.656 45.8718 68.572 46.2265 68.404C46.5812 68.236 46.8798 68.0027 47.1225 67.704C47.3745 67.396 47.5658 67.0273 47.6965 66.598C47.8272 66.1593 47.8925 65.674 47.8925 65.142C47.8925 64.61 47.8272 64.1293 47.6965 63.7C47.5658 63.2613 47.3745 62.8927 47.1225 62.594C46.8798 62.286 46.5812 62.048 46.2265 61.88C45.8718 61.712 45.4752 61.628 45.0365 61.628C44.5885 61.628 44.1872 61.712 43.8325 61.88C43.4778 62.048 43.1745 62.286 42.9225 62.594C42.6798 62.902 42.4932 63.2707 42.3625 63.7C42.2318 64.1293 42.1665 64.61 42.1665 65.142ZM49.7405 65.142C49.7405 65.9727 49.6145 66.7053 49.3625 67.34C49.1198 67.9747 48.7838 68.5067 48.3545 68.936C47.9345 69.356 47.4398 69.6733 46.8705 69.888C46.3012 70.1027 45.6945 70.21 45.0505 70.21C44.4065 70.21 43.7952 70.1027 43.2165 69.888C42.6472 69.6733 42.1478 69.356 41.7185 68.936C41.2985 68.5067 40.9625 67.9747 40.7105 67.34C40.4585 66.7053 40.3325 65.9727 40.3325 65.142C40.3325 64.3113 40.4585 63.5833 40.7105 62.958C40.9625 62.3233 41.3032 61.7913 41.7325 61.362C42.1712 60.9327 42.6752 60.6107 43.2445 60.396C43.8138 60.1813 44.4158 60.074 45.0505 60.074C45.6852 60.074 46.2872 60.1813 46.8565 60.396C47.4258 60.6107 47.9205 60.9327 48.3405 61.362C48.7698 61.7913 49.1105 62.3233 49.3625 62.958C49.6145 63.5833 49.7405 64.3113 49.7405 65.142ZM57.8077 68.474V70H51.6757V60.298H53.4397V68.474H57.8077ZM60.9182 68.544C61.0209 68.5533 61.1562 68.5627 61.3242 68.572C61.4922 68.572 61.7209 68.572 62.0102 68.572C63.1955 68.572 64.0775 68.2733 64.6562 67.676C65.2442 67.0693 65.5382 66.2247 65.5382 65.142C65.5382 64.0407 65.2535 63.196 64.6842 62.608C64.1149 62.02 63.2329 61.726 62.0382 61.726C61.5155 61.726 61.1422 61.74 60.9182 61.768V68.544ZM67.3862 65.142C67.3862 65.982 67.2555 66.7147 66.9942 67.34C66.7329 67.956 66.3595 68.474 65.8742 68.894C65.3982 69.3047 64.8195 69.6127 64.1382 69.818C63.4662 70.014 62.7195 70.112 61.8982 70.112C61.5062 70.112 61.0629 70.0933 60.5682 70.056C60.0735 70.028 59.6022 69.9627 59.1542 69.86V60.438C59.6022 60.3353 60.0782 60.27 60.5822 60.242C61.0862 60.214 61.5342 60.2 61.9262 60.2C62.7382 60.2 63.4802 60.298 64.1522 60.494C64.8242 60.6807 65.3982 60.9793 65.8742 61.39C66.3595 61.7913 66.7329 62.3047 66.9942 62.93C67.2555 63.546 67.3862 64.2833 67.3862 65.142Z" fill="#9A9FA9"/>
</svg>
