<svg width="30" height="30" viewBox="0 0 30 30" fill="none" xmlns="http://www.w3.org/2000/svg">
<g clip-path="url(#clip0_10799_14704)">
<path d="M27.5 3.75L8.75 3.75C7.875 3.75 7.25 4.25 6.75 4.875L0 15L6.75 25.125C7.25 25.75 7.875 26.25 8.75 26.25L27.5 26.25C28.163 26.25 28.7989 25.9866 29.2678 25.5178C29.7366 25.0489 30 24.413 30 23.75L30 6.25C30 5.58696 29.7366 4.95107 29.2678 4.48223C28.7989 4.01339 28.163 3.75 27.5 3.75ZM23.75 19.5L22 21.25L17.5 16.75L13 21.25L11.25 19.5L15.75 15L11.25 10.5L13 8.75L17.5 13.25L22 8.75L23.75 10.5L19.25 15" fill="#9A9FA9"/>
</g>
<defs>
<clipPath id="clip0_10799_14704">
<rect width="30" height="30" fill="white" transform="matrix(-1 0 0 -1 30 30)"/>
</clipPath>
</defs>
</svg>
