<svg width="98" height="92" viewBox="0 0 98 92" fill="none" xmlns="http://www.w3.org/2000/svg">
<rect x="0.5" y="0.5" width="97" height="91" rx="5.92373" stroke="#ECEDF3"/>
<path d="M58.7727 35.8592L56.5758 33.7476C56.9293 33.1893 57.1944 32.6068 57.3712 32C57.548 31.3932 57.6364 30.7621 57.6364 30.1068H60.6667C60.6667 31.1748 60.5025 32.1881 60.1742 33.1468C59.846 34.1056 59.3788 35.0097 58.7727 35.8592ZM54.303 31.4903L51.5758 28.8689V21.3689C51.5758 20.9563 51.4306 20.6104 51.1402 20.3313C50.8497 20.0522 50.4899 19.9126 50.0606 19.9126C49.6313 19.9126 49.2715 20.0522 48.9811 20.3313C48.6907 20.6104 48.5455 20.9563 48.5455 21.3689V25.9563L45.5152 23.0437V21.3689C45.5152 20.1553 45.9571 19.1238 46.8409 18.2743C47.7247 17.4248 48.798 17 50.0606 17C51.3232 17 52.3965 17.4248 53.2803 18.2743C54.1641 19.1238 54.6061 20.1553 54.6061 21.3689V30.1068C54.6061 30.3738 54.5745 30.6165 54.5114 30.835C54.4482 31.0534 54.3788 31.2718 54.303 31.4903ZM48.5455 44.6699V40.1917C45.9192 39.8519 43.7475 38.7233 42.0303 36.8058C40.3131 34.8883 39.4545 32.6553 39.4545 30.1068H42.4848C42.4848 32.1214 43.2109 33.8386 44.6629 35.2585C46.1149 36.6784 47.9141 37.3883 50.0606 37.3883C50.9192 37.3883 51.7336 37.2609 52.5038 37.0061C53.274 36.7512 53.9747 36.3932 54.6061 35.932L56.7652 38.0073C56.0328 38.5655 55.2311 39.0388 54.3598 39.4272C53.4886 39.8155 52.5606 40.0704 51.5758 40.1917V44.6699H48.5455ZM61.8788 47L34 20.2039L36.1212 18.165L64 44.9612L61.8788 47Z" fill="#9A9FA9"/>
<path d="M32.776 60.298C32.9813 60.6527 33.21 61.0867 33.462 61.6C33.714 62.1133 33.9707 62.6547 34.232 63.224C34.4933 63.784 34.75 64.358 35.002 64.946C35.2633 65.5247 35.5013 66.0613 35.716 66.556C35.9307 66.0613 36.164 65.5247 36.416 64.946C36.668 64.358 36.9247 63.784 37.186 63.224C37.4473 62.6547 37.704 62.1133 37.956 61.6C38.208 61.0867 38.4367 60.6527 38.642 60.298H40.238C40.322 61.0073 40.4013 61.7633 40.476 62.566C40.5507 63.3593 40.616 64.176 40.672 65.016C40.7373 65.8467 40.7933 66.6867 40.84 67.536C40.896 68.376 40.9427 69.1973 40.98 70H39.244C39.2067 68.8707 39.16 67.7087 39.104 66.514C39.0573 65.3193 38.9827 64.162 38.88 63.042C38.7773 63.2567 38.656 63.5133 38.516 63.812C38.376 64.1107 38.2267 64.4373 38.068 64.792C37.9093 65.1373 37.746 65.4967 37.578 65.87C37.4193 66.2433 37.2607 66.6073 37.102 66.962C36.9527 67.3073 36.8127 67.634 36.682 67.942C36.5513 68.2407 36.4393 68.4973 36.346 68.712H35.03C34.9367 68.4973 34.8247 68.236 34.694 67.928C34.5633 67.62 34.4187 67.2933 34.26 66.948C34.1107 66.5933 33.952 66.2293 33.784 65.856C33.6253 65.4827 33.4667 65.1233 33.308 64.778C33.1493 64.4327 33 64.1107 32.86 63.812C32.72 63.504 32.5987 63.2473 32.496 63.042C32.3933 64.162 32.314 65.3193 32.258 66.514C32.2113 67.7087 32.1693 68.8707 32.132 70H30.396C30.4333 69.1973 30.4753 68.3667 30.522 67.508C30.578 66.6493 30.634 65.8 30.69 64.96C30.7553 64.1107 30.8253 63.2893 30.9 62.496C30.9747 61.7027 31.054 60.97 31.138 60.298H32.776ZM46.773 70.21C46.1104 70.21 45.541 70.1167 45.065 69.93C44.589 69.734 44.1924 69.4633 43.875 69.118C43.567 68.7727 43.3384 68.3667 43.189 67.9C43.0397 67.4333 42.965 66.92 42.965 66.36V60.298H44.743V66.192C44.743 66.6307 44.7897 67.0087 44.883 67.326C44.9857 67.634 45.1257 67.886 45.303 68.082C45.4897 68.278 45.7044 68.4227 45.947 68.516C46.199 68.6093 46.479 68.656 46.787 68.656C47.095 68.656 47.375 68.6093 47.627 68.516C47.879 68.4227 48.0937 68.278 48.271 68.082C48.4577 67.886 48.5977 67.634 48.691 67.326C48.7937 67.0087 48.845 66.6307 48.845 66.192V60.298H50.623V66.36C50.623 66.92 50.5437 67.4333 50.385 67.9C50.2357 68.3667 50.0024 68.7727 49.685 69.118C49.377 69.4633 48.9804 69.734 48.495 69.93C48.0097 70.1167 47.4357 70.21 46.773 70.21ZM59.6408 60.298V61.824H56.6588V70H54.8808V61.824H51.8988V60.298H59.6408ZM60.9862 70V60.298H67.2162V61.796H62.7502V64.19H66.7262V65.66H62.7502V68.502H67.5522V70H60.9862Z" fill="#9A9FA9"/>
</svg>
