<svg width="158" height="92" viewBox="0 0 158 92" fill="none" xmlns="http://www.w3.org/2000/svg">
<rect x="0.5" y="0.5" width="157" height="91" rx="5.92373" stroke="#ECEDF3"/>
<mask id="mask0_10799_17942" style="mask-type:alpha" maskUnits="userSpaceOnUse" x="64" y="17" width="30" height="30">
<rect x="64" y="17" width="30" height="30" fill="#D9D9D9"/>
</mask>
<g mask="url(#mask0_10799_17942)">
<path d="M86.5 29.5L84.6875 27.75L86.6875 25.75H80.25V23.25H86.6875L84.75 21.3125L86.5 19.5L91.5 24.5625L86.5 29.5ZM88.9375 43.25C86.3333 43.25 83.7604 42.6823 81.2188 41.5469C78.6771 40.4115 76.3646 38.8021 74.2812 36.7188C72.1979 34.6354 70.5885 32.3229 69.4531 29.7812C68.3177 27.2396 67.75 24.6667 67.75 22.0625C67.75 21.6875 67.875 21.375 68.125 21.125C68.375 20.875 68.6875 20.75 69.0625 20.75H74.125C74.4167 20.75 74.6771 20.849 74.9062 21.0469C75.1354 21.2448 75.2708 21.4792 75.3125 21.75L76.125 26.125C76.1667 26.4583 76.1562 26.7396 76.0938 26.9688C76.0312 27.1979 75.9167 27.3958 75.75 27.5625L72.7188 30.625C73.1354 31.3958 73.6302 32.1406 74.2031 32.8594C74.776 33.5781 75.4062 34.2708 76.0938 34.9375C76.7396 35.5833 77.4167 36.1823 78.125 36.7344C78.8333 37.2865 79.5833 37.7917 80.375 38.25L83.3125 35.3125C83.5 35.125 83.7448 34.9844 84.0469 34.8906C84.349 34.7969 84.6458 34.7708 84.9375 34.8125L89.25 35.6875C89.5417 35.7708 89.7812 35.9219 89.9688 36.1406C90.1562 36.3594 90.25 36.6042 90.25 36.875V41.9375C90.25 42.3125 90.125 42.625 89.875 42.875C89.625 43.125 89.3125 43.25 88.9375 43.25ZM71.5312 28.25L73.5938 26.1875L73.0625 23.25H70.2812C70.3854 24.1042 70.5312 24.9479 70.7188 25.7812C70.9062 26.6146 71.1771 27.4375 71.5312 28.25ZM82.7188 39.4375C83.5313 39.7917 84.3594 40.0729 85.2031 40.2812C86.0469 40.4896 86.8958 40.625 87.75 40.6875V37.9375L84.8125 37.3438L82.7188 39.4375Z" fill="#9A9FA9"/>
</g>
<path d="M27.878 61.39C28.0273 61.894 28.186 62.4213 28.354 62.972C28.522 63.5133 28.6947 64.0593 28.872 64.61C29.0587 65.1513 29.2407 65.688 29.418 66.22C29.6047 66.7427 29.782 67.2373 29.95 67.704C30.09 67.2 30.2253 66.654 30.356 66.066C30.4867 65.4687 30.6173 64.8527 30.748 64.218C30.8787 63.574 31.0047 62.9207 31.126 62.258C31.2567 61.5953 31.378 60.942 31.49 60.298H33.31C32.9833 62.0527 32.6193 63.742 32.218 65.366C31.8167 66.9807 31.3687 68.5253 30.874 70H29.194C28.466 68.1147 27.7613 66.0567 27.08 63.826C26.7347 64.9553 26.3847 66.0287 26.03 67.046C25.6753 68.0633 25.3207 69.048 24.966 70H23.286C22.782 68.5253 22.3293 66.9807 21.928 65.366C21.536 63.742 21.1767 62.0527 20.85 60.298H22.74C22.852 60.9327 22.9687 61.5813 23.09 62.244C23.2207 62.9067 23.3513 63.56 23.482 64.204C23.622 64.8387 23.762 65.4547 23.902 66.052C24.042 66.6493 24.182 67.2 24.322 67.704C24.4993 67.228 24.6767 66.7287 24.854 66.206C25.0407 65.674 25.2227 65.1373 25.4 64.596C25.5773 64.0453 25.7453 63.4993 25.904 62.958C26.072 62.4167 26.226 61.894 26.366 61.39H27.878ZM41.0219 70C40.8913 69.6173 40.7559 69.2393 40.6159 68.866C40.4759 68.4927 40.3406 68.11 40.2099 67.718H36.1219C35.9913 68.11 35.8559 68.4973 35.7159 68.88C35.5853 69.2533 35.4546 69.6267 35.3239 70H33.4899C33.8539 68.964 34.1993 68.0073 34.5259 67.13C34.8526 66.2527 35.1699 65.422 35.4779 64.638C35.7953 63.854 36.1079 63.1073 36.4159 62.398C36.7239 61.6887 37.0413 60.9887 37.3679 60.298H39.0339C39.3606 60.9887 39.6779 61.6887 39.9859 62.398C40.2939 63.1073 40.6019 63.854 40.9099 64.638C41.2273 65.422 41.5493 66.2527 41.8759 67.13C42.2119 68.0073 42.5619 68.964 42.9259 70H41.0219ZM38.1659 62.174C37.9513 62.6687 37.7039 63.2707 37.4239 63.98C37.1533 64.6893 36.8686 65.4593 36.5699 66.29H39.7619C39.4633 65.4593 39.1739 64.6847 38.8939 63.966C38.6139 63.2473 38.3713 62.65 38.1659 62.174ZM46.8262 60.2C48.2262 60.2 49.2949 60.4567 50.0322 60.97C50.7789 61.4833 51.1522 62.2673 51.1522 63.322C51.1522 64.638 50.5036 65.5293 49.2062 65.996C49.3836 66.2107 49.5842 66.472 49.8082 66.78C50.0322 67.088 50.2609 67.424 50.4942 67.788C50.7276 68.1427 50.9516 68.5113 51.1662 68.894C51.3809 69.2673 51.5722 69.636 51.7402 70H49.7662C49.5889 69.664 49.3976 69.328 49.1922 68.992C48.9869 68.6467 48.7769 68.3153 48.5622 67.998C48.3569 67.6713 48.1516 67.368 47.9462 67.088C47.7409 66.7987 47.5496 66.542 47.3722 66.318C47.2416 66.3273 47.1296 66.332 47.0362 66.332C46.9429 66.332 46.8542 66.332 46.7702 66.332H45.9162V70H44.1522V60.438C44.5816 60.3447 45.0389 60.284 45.5242 60.256C46.0096 60.2187 46.4436 60.2 46.8262 60.2ZM46.9522 61.726C46.5789 61.726 46.2336 61.74 45.9162 61.768V64.904H46.6862C47.1156 64.904 47.4936 64.8807 47.8202 64.834C48.1469 64.7873 48.4176 64.7033 48.6322 64.582C48.8562 64.4607 49.0242 64.2973 49.1362 64.092C49.2482 63.8867 49.3042 63.6253 49.3042 63.308C49.3042 63.0093 49.2482 62.7573 49.1362 62.552C49.0242 62.3467 48.8609 62.1833 48.6462 62.062C48.4409 61.9407 48.1936 61.8567 47.9042 61.81C47.6149 61.754 47.2976 61.726 46.9522 61.726ZM55.2213 60.298C55.4267 60.6527 55.6553 61.0867 55.9073 61.6C56.1593 62.1133 56.416 62.6547 56.6773 63.224C56.9387 63.784 57.1953 64.358 57.4473 64.946C57.7087 65.5247 57.9467 66.0613 58.1613 66.556C58.376 66.0613 58.6093 65.5247 58.8613 64.946C59.1133 64.358 59.37 63.784 59.6313 63.224C59.8927 62.6547 60.1493 62.1133 60.4013 61.6C60.6533 61.0867 60.882 60.6527 61.0873 60.298H62.6833C62.7673 61.0073 62.8467 61.7633 62.9213 62.566C62.996 63.3593 63.0613 64.176 63.1173 65.016C63.1827 65.8467 63.2387 66.6867 63.2853 67.536C63.3413 68.376 63.388 69.1973 63.4253 70H61.6893C61.652 68.8707 61.6053 67.7087 61.5493 66.514C61.5027 65.3193 61.428 64.162 61.3253 63.042C61.2227 63.2567 61.1013 63.5133 60.9613 63.812C60.8213 64.1107 60.672 64.4373 60.5133 64.792C60.3547 65.1373 60.1913 65.4967 60.0233 65.87C59.8647 66.2433 59.706 66.6073 59.5473 66.962C59.398 67.3073 59.258 67.634 59.1273 67.942C58.9967 68.2407 58.8847 68.4973 58.7913 68.712H57.4753C57.382 68.4973 57.27 68.236 57.1393 67.928C57.0087 67.62 56.864 67.2933 56.7053 66.948C56.556 66.5933 56.3973 66.2293 56.2293 65.856C56.0707 65.4827 55.912 65.1233 55.7533 64.778C55.5947 64.4327 55.4453 64.1107 55.3053 63.812C55.1653 63.504 55.044 63.2473 54.9413 63.042C54.8387 64.162 54.7593 65.3193 54.7033 66.514C54.6566 67.7087 54.6146 68.8707 54.5773 70H52.8413C52.8786 69.1973 52.9206 68.3667 52.9673 67.508C53.0233 66.6493 53.0793 65.8 53.1353 64.96C53.2006 64.1107 53.2706 63.2893 53.3453 62.496C53.42 61.7027 53.4993 60.97 53.5833 60.298H55.2213ZM75.5099 60.298V61.824H72.5279V70H70.7499V61.824H67.7679V60.298H75.5099ZM79.5294 60.2C80.9294 60.2 81.998 60.4567 82.7354 60.97C83.482 61.4833 83.8554 62.2673 83.8554 63.322C83.8554 64.638 83.2067 65.5293 81.9094 65.996C82.0867 66.2107 82.2874 66.472 82.5114 66.78C82.7354 67.088 82.964 67.424 83.1974 67.788C83.4307 68.1427 83.6547 68.5113 83.8694 68.894C84.084 69.2673 84.2754 69.636 84.4434 70H82.4694C82.292 69.664 82.1007 69.328 81.8954 68.992C81.69 68.6467 81.48 68.3153 81.2654 67.998C81.06 67.6713 80.8547 67.368 80.6494 67.088C80.444 66.7987 80.2527 66.542 80.0754 66.318C79.9447 66.3273 79.8327 66.332 79.7394 66.332C79.646 66.332 79.5574 66.332 79.4734 66.332H78.6194V70H76.8554V60.438C77.2847 60.3447 77.742 60.284 78.2274 60.256C78.7127 60.2187 79.1467 60.2 79.5294 60.2ZM79.6554 61.726C79.282 61.726 78.9367 61.74 78.6194 61.768V64.904H79.3894C79.8187 64.904 80.1967 64.8807 80.5234 64.834C80.85 64.7873 81.1207 64.7033 81.3354 64.582C81.5594 64.4607 81.7274 64.2973 81.8394 64.092C81.9514 63.8867 82.0074 63.6253 82.0074 63.308C82.0074 63.0093 81.9514 62.7573 81.8394 62.552C81.7274 62.3467 81.564 62.1833 81.3494 62.062C81.144 61.9407 80.8967 61.8567 80.6074 61.81C80.318 61.754 80.0007 61.726 79.6554 61.726ZM92.6059 70C92.4752 69.6173 92.3399 69.2393 92.1999 68.866C92.0599 68.4927 91.9246 68.11 91.7939 67.718H87.7059C87.5752 68.11 87.4399 68.4973 87.2999 68.88C87.1692 69.2533 87.0386 69.6267 86.9079 70H85.0739C85.4379 68.964 85.7832 68.0073 86.1099 67.13C86.4366 66.2527 86.7539 65.422 87.0619 64.638C87.3792 63.854 87.6919 63.1073 87.9999 62.398C88.3079 61.6887 88.6252 60.9887 88.9519 60.298H90.6179C90.9446 60.9887 91.2619 61.6887 91.5699 62.398C91.8779 63.1073 92.1859 63.854 92.4939 64.638C92.8112 65.422 93.1332 66.2527 93.4599 67.13C93.7959 68.0073 94.1459 68.964 94.5099 70H92.6059ZM89.7499 62.174C89.5352 62.6687 89.2879 63.2707 89.0079 63.98C88.7372 64.6893 88.4526 65.4593 88.1539 66.29H91.3459C91.0472 65.4593 90.7579 64.6847 90.4779 63.966C90.1979 63.2473 89.9552 62.65 89.7499 62.174ZM102.274 70C101.957 69.468 101.602 68.8987 101.21 68.292C100.818 67.676 100.412 67.06 99.9922 66.444C99.5722 65.8187 99.1429 65.2167 98.7042 64.638C98.2749 64.05 97.8642 63.5227 97.4722 63.056V70H95.7362V60.298H97.1782C97.5516 60.69 97.9529 61.1567 98.3822 61.698C98.8116 62.23 99.2409 62.7853 99.6702 63.364C100.109 63.9427 100.529 64.526 100.93 65.114C101.341 65.6927 101.705 66.234 102.022 66.738V60.298H103.772V70H102.274ZM108.452 68.684C109.086 68.684 109.548 68.5767 109.838 68.362C110.127 68.1473 110.272 67.844 110.272 67.452C110.272 67.2187 110.22 67.018 110.118 66.85C110.024 66.682 109.884 66.5327 109.698 66.402C109.52 66.262 109.301 66.136 109.04 66.024C108.778 65.9027 108.48 65.786 108.144 65.674C107.808 65.5527 107.481 65.422 107.164 65.282C106.856 65.1327 106.58 64.9507 106.338 64.736C106.104 64.5213 105.913 64.2647 105.764 63.966C105.624 63.6673 105.554 63.308 105.554 62.888C105.554 62.0107 105.857 61.3247 106.464 60.83C107.07 60.326 107.896 60.074 108.942 60.074C109.548 60.074 110.085 60.144 110.552 60.284C111.028 60.4147 111.401 60.5593 111.672 60.718L111.126 62.146C110.808 61.9687 110.458 61.8333 110.076 61.74C109.702 61.6467 109.315 61.6 108.914 61.6C108.438 61.6 108.064 61.698 107.794 61.894C107.532 62.09 107.402 62.3653 107.402 62.72C107.402 62.9347 107.444 63.1213 107.528 63.28C107.621 63.4293 107.747 63.5647 107.906 63.686C108.074 63.8073 108.265 63.9193 108.48 64.022C108.704 64.1247 108.946 64.2227 109.208 64.316C109.665 64.484 110.071 64.6567 110.426 64.834C110.79 65.002 111.093 65.2073 111.336 65.45C111.588 65.6833 111.779 65.9633 111.91 66.29C112.04 66.6073 112.106 66.9947 112.106 67.452C112.106 68.3293 111.793 69.0107 111.168 69.496C110.552 69.972 109.646 70.21 108.452 70.21C108.05 70.21 107.682 70.182 107.346 70.126C107.019 70.0793 106.725 70.0187 106.464 69.944C106.212 69.8693 105.992 69.7947 105.806 69.72C105.619 69.636 105.47 69.5613 105.358 69.496L105.876 68.054C106.128 68.194 106.468 68.334 106.898 68.474C107.327 68.614 107.845 68.684 108.452 68.684ZM113.66 70V60.298H119.792V61.796H115.424V64.274H119.302V65.772H115.424V70H113.66ZM121.371 70V60.298H127.601V61.796H123.135V64.19H127.111V65.66H123.135V68.502H127.937V70H121.371ZM132.248 60.2C133.648 60.2 134.717 60.4567 135.454 60.97C136.201 61.4833 136.574 62.2673 136.574 63.322C136.574 64.638 135.925 65.5293 134.628 65.996C134.805 66.2107 135.006 66.472 135.23 66.78C135.454 67.088 135.683 67.424 135.916 67.788C136.149 68.1427 136.373 68.5113 136.588 68.894C136.803 69.2673 136.994 69.636 137.162 70H135.188C135.011 69.664 134.819 69.328 134.614 68.992C134.409 68.6467 134.199 68.3153 133.984 67.998C133.779 67.6713 133.573 67.368 133.368 67.088C133.163 66.7987 132.971 66.542 132.794 66.318C132.663 66.3273 132.551 66.332 132.458 66.332C132.365 66.332 132.276 66.332 132.192 66.332H131.338V70H129.574V60.438C130.003 60.3447 130.461 60.284 130.946 60.256C131.431 60.2187 131.865 60.2 132.248 60.2ZM132.374 61.726C132.001 61.726 131.655 61.74 131.338 61.768V64.904H132.108C132.537 64.904 132.915 64.8807 133.242 64.834C133.569 64.7873 133.839 64.7033 134.054 64.582C134.278 64.4607 134.446 64.2973 134.558 64.092C134.67 63.8867 134.726 63.6253 134.726 63.308C134.726 63.0093 134.67 62.7573 134.558 62.552C134.446 62.3467 134.283 62.1833 134.068 62.062C133.863 61.9407 133.615 61.8567 133.326 61.81C133.037 61.754 132.719 61.726 132.374 61.726Z" fill="#9A9FA9"/>
</svg>
